<svg xmlns="http://www.w3.org/2000/svg" xmlns:xlink="http://www.w3.org/1999/xlink" version="1.1" class="marks" width="927" height="649" viewBox="0 0 927 649"><rect width="927" height="649" fill="white"/><g fill="none" stroke-miterlimit="10" transform="translate(6,5)"><g class="mark-group role-frame root" role="graphics-object" aria-roledescription="group mark container"><g transform="translate(0,0)"><path class="background" aria-hidden="true" d="M0,0h0v0h0Z"/><g><g class="mark-group role-scope concat_0_group" role="graphics-object" aria-roledescription="group mark container"><g transform="translate(83,0)"><path class="background" aria-hidden="true" d="M0,0h750v58h-750Z" stroke="#ddd" stroke-width="0"/><g><g class="mark-text role-mark concat_0_layer_0_marks" role="graphics-object" aria-roledescription="text mark container"><text text-anchor="middle" transform="translate(375,19)" font-family="Noto Sans" font-size="19px" font-weight="bold" fill="#000000" stroke-width="2.5">Grafico a barre con dati e categorie</text></g><g class="mark-text role-mark concat_0_layer_1_marks" role="graphics-object" aria-roledescription="text mark container"><text text-anchor="middle" transform="translate(375,42)" font-family="Noto Sans" font-size="15px" fill="#000000" stroke-width="2.5">Esempio di utilizzo di pynarrative</text></g></g><path class="foreground" aria-hidden="true" d="" display="none"/></g></g><g class="mark-group role-scope concat_1_group" role="graphics-object" aria-roledescription="group mark container"><g transform="translate(0.185546875,84)"><path class="background" aria-hidden="true" d="M0,0h0v0h0Z"/><g><g class="mark-group role-scope concat_1_concat_0_group" role="graphics-object" aria-roledescription="group mark container"><g transform="translate(0.37109375,0)"><path class="background" aria-hidden="true" d="M0,0h0v0h0Z"/><g><g class="mark-group role-scope concat_1_concat_0_concat_0_group" role="graphics-object" aria-roledescription="group mark container"><g transform="translate(0,0)"><path class="background" aria-hidden="true" d="M0,0h250v300h-250Z" stroke="#ddd" stroke-width="0"/><g><g class="mark-rect role-mark concat_1_concat_0_concat_0_layer_0_marks" role="graphics-symbol" aria-roledescription="rect mark container"><path d="M10,23L240,23C245.51915024494,23,250,27.48084975506,250,33L250,267C250,272.51915024494,245.51915024494,277,240,277L10,277C4.48084975506,277,0,272.51915024494,0,267L0,33C0,27.48084975506,4.48084975506,23,10,23Z" fill="#e0d1b4" stroke="#c2a46c" stroke-width="1" opacity="1"/></g><g class="mark-text role-mark concat_1_concat_0_concat_0_layer_1_marks" role="graphics-object" aria-roledescription="text mark container"><text text-anchor="start" transform="translate(10,45)" font-family="Noto Sans" font-size="15px" font-style="normal" font-weight="normal" fill="#000000" stroke-width="2.5"><tspan>Lorem ipsum dolor sit</tspan><tspan x="0" dy="19.5">amet, consectetuer</tspan><tspan x="0" dy="19.5">adipiscing elit, sed diam</tspan><tspan x="0" dy="19.5">nonummy nibh euismod</tspan><tspan x="0" dy="19.5">tincidunt ut laoreet</tspan><tspan x="0" dy="19.5">dolore magna aliquam erat</tspan><tspan x="0" dy="19.5">volutpat. Ut wisi enim ad</tspan><tspan x="0" dy="19.5">minim veniam, quis</tspan><tspan x="0" dy="19.5">nostrud exerci tation</tspan><tspan x="0" dy="19.5">ullamcorper suscipit</tspan><tspan x="0" dy="19.5">lobortis nisl ut aliquip</tspan><tspan x="0" dy="19.5">ex ea commodo consequat.</tspan></text></g></g><path class="foreground" aria-hidden="true" d="" display="none"/></g></g><g class="mark-group role-scope concat_1_concat_0_concat_1_group" role="graphics-object" aria-roledescription="group mark container"><g transform="translate(319,0)"><path class="background" aria-hidden="true" d="M0,0h500v300h-500Z" stroke="#ddd" stroke-width="0"/><g><g class="mark-group role-axis" aria-hidden="true"><g transform="translate(0.5,300.5)"><path class="background" aria-hidden="true" d="M0,0h0v0h0Z" pointer-events="none"/><g><g class="mark-rule role-axis-grid" pointer-events="none"><line transform="translate(25,-300)" x2="0" y2="300" stroke="#ddd" stroke-width="1" opacity="1"/><line transform="translate(75,-300)" x2="0" y2="300" stroke="#ddd" stroke-width="1" opacity="1"/><line transform="translate(125,-300)" x2="0" y2="300" stroke="#ddd" stroke-width="1" opacity="1"/><line transform="translate(175,-300)" x2="0" y2="300" stroke="#ddd" stroke-width="1" opacity="1"/><line transform="translate(225,-300)" x2="0" y2="300" stroke="#ddd" stroke-width="1" opacity="1"/><line transform="translate(275,-300)" x2="0" y2="300" stroke="#ddd" stroke-width="1" opacity="1"/><line transform="translate(325,-300)" x2="0" y2="300" stroke="#ddd" stroke-width="1" opacity="1"/><line transform="translate(375,-300)" x2="0" y2="300" stroke="#ddd" stroke-width="1" opacity="1"/><line transform="translate(425,-300)" x2="0" y2="300" stroke="#ddd" stroke-width="1" opacity="1"/><line transform="translate(475,-300)" x2="0" y2="300" stroke="#ddd" stroke-width="1" opacity="1"/></g></g><path class="foreground" aria-hidden="true" d="" pointer-events="none" display="none"/></g></g><g class="mark-group role-axis" aria-hidden="true"><g transform="translate(0.5,0.5)"><path class="background" aria-hidden="true" d="M0,0h0v0h0Z" pointer-events="none"/><g><g class="mark-rule role-axis-grid" pointer-events="none"><line transform="translate(0,300)" x2="500" y2="0" stroke="#ddd" stroke-width="1" opacity="1"/><line transform="translate(0,270)" x2="500" y2="0" stroke="#ddd" stroke-width="1" opacity="1"/><line transform="translate(0,240)" x2="500" y2="0" stroke="#ddd" stroke-width="1" opacity="1"/><line transform="translate(0,210)" x2="500" y2="0" stroke="#ddd" stroke-width="1" opacity="1"/><line transform="translate(0,180)" x2="500" y2="0" stroke="#ddd" stroke-width="1" opacity="1"/><line transform="translate(0,150)" x2="500" y2="0" stroke="#ddd" stroke-width="1" opacity="1"/><line transform="translate(0,120)" x2="500" y2="0" stroke="#ddd" stroke-width="1" opacity="1"/><line transform="translate(0,90)" x2="500" y2="0" stroke="#ddd" stroke-width="1" opacity="1"/><line transform="translate(0,60)" x2="500" y2="0" stroke="#ddd" stroke-width="1" opacity="1"/><line transform="translate(0,30)" x2="500" y2="0" stroke="#ddd" stroke-width="1" opacity="1"/><line transform="translate(0,0)" x2="500" y2="0" stroke="#ddd" stroke-width="1" opacity="1"/></g></g><path class="foreground" aria-hidden="true" d="" pointer-events="none" display="none"/></g></g><g class="mark-group role-axis" role="graphics-symbol" aria-roledescription="axis" aria-label="X-axis titled 'Categoria' for a discrete scale with 10 values: A, B, C, D, E, ending with J"><g transform="translate(0.5,300.5)"><path class="background" aria-hidden="true" d="M0,0h0v0h0Z" pointer-events="none"/><g><g class="mark-rule role-axis-tick" pointer-events="none"><line transform="translate(25,0)" x2="0" y2="5" stroke="#d8c9ad" stroke-width="1" opacity="1"/><line transform="translate(75,0)" x2="0" y2="5" stroke="#d8c9ad" stroke-width="1" opacity="1"/><line transform="translate(125,0)" x2="0" y2="5" stroke="#d8c9ad" stroke-width="1" opacity="1"/><line transform="translate(175,0)" x2="0" y2="5" stroke="#d8c9ad" stroke-width="1" opacity="1"/><line transform="translate(225,0)" x2="0" y2="5" stroke="#d8c9ad" stroke-width="1" opacity="1"/><line transform="translate(275,0)" x2="0" y2="5" stroke="#d8c9ad" stroke-width="1" opacity="1"/><line transform="translate(325,0)" x2="0" y2="5" stroke="#d8c9ad" stroke-width="1" opacity="1"/><line transform="translate(375,0)" x2="0" y2="5" stroke="#d8c9ad" stroke-width="1" opacity="1"/><line transform="translate(425,0)" x2="0" y2="5" stroke="#d8c9ad" stroke-width="1" opacity="1"/><line transform="translate(475,0)" x2="0" y2="5" stroke="#d8c9ad" stroke-width="1" opacity="1"/></g><g class="mark-text role-axis-label" pointer-events="none"><text text-anchor="middle" transform="translate(24.5,17)" font-family="Noto Sans" font-size="13px" fill="#594a37" opacity="1">A</text><text text-anchor="middle" transform="translate(74.5,17)" font-family="Noto Sans" font-size="13px" fill="#594a37" opacity="1">B</text><text text-anchor="middle" transform="translate(124.5,17)" font-family="Noto Sans" font-size="13px" fill="#594a37" opacity="1">C</text><text text-anchor="middle" transform="translate(174.5,17)" font-family="Noto Sans" font-size="13px" fill="#594a37" opacity="1">D</text><text text-anchor="middle" transform="translate(224.5,17)" font-family="Noto Sans" font-size="13px" fill="#594a37" opacity="1">E</text><text text-anchor="middle" transform="translate(274.5,17)" font-family="Noto Sans" font-size="13px" fill="#594a37" opacity="1">F</text><text text-anchor="middle" transform="translate(324.5,17)" font-family="Noto Sans" font-size="13px" fill="#594a37" opacity="1">G</text><text text-anchor="middle" transform="translate(374.5,17)" font-family="Noto Sans" font-size="13px" fill="#594a37" opacity="1">H</text><text text-anchor="middle" transform="translate(424.5,17)" font-family="Noto Sans" font-size="13px" fill="#594a37" opacity="1">I</text><text text-anchor="middle" transform="translate(474.5,17)" font-family="Noto Sans" font-size="13px" fill="#594a37" opacity="1">J</text></g><g class="mark-rule role-axis-domain" pointer-events="none"><line transform="translate(0,0)" x2="500" y2="0" stroke="#d8c9ad" stroke-width="1" opacity="1"/></g><g class="mark-text role-axis-title" pointer-events="none"><text text-anchor="middle" transform="translate(250,35)" font-family="Noto Sans" font-size="14px" font-weight="bold" fill="#000000" opacity="1">Categoria</text></g></g><path class="foreground" aria-hidden="true" d="" pointer-events="none" display="none"/></g></g><g class="mark-group role-axis" role="graphics-symbol" aria-roledescription="axis" aria-label="Y-axis titled 'Valore' for a linear scale with values from 0 to 100"><g transform="translate(0.5,0.5)"><path class="background" aria-hidden="true" d="M0,0h0v0h0Z" pointer-events="none"/><g><g class="mark-rule role-axis-tick" pointer-events="none"><line transform="translate(0,300)" x2="-5" y2="0" stroke="#d8c9ad" stroke-width="1" opacity="1"/><line transform="translate(0,270)" x2="-5" y2="0" stroke="#d8c9ad" stroke-width="1" opacity="1"/><line transform="translate(0,240)" x2="-5" y2="0" stroke="#d8c9ad" stroke-width="1" opacity="1"/><line transform="translate(0,210)" x2="-5" y2="0" stroke="#d8c9ad" stroke-width="1" opacity="1"/><line transform="translate(0,180)" x2="-5" y2="0" stroke="#d8c9ad" stroke-width="1" opacity="1"/><line transform="translate(0,150)" x2="-5" y2="0" stroke="#d8c9ad" stroke-width="1" opacity="1"/><line transform="translate(0,120)" x2="-5" y2="0" stroke="#d8c9ad" stroke-width="1" opacity="1"/><line transform="translate(0,90)" x2="-5" y2="0" stroke="#d8c9ad" stroke-width="1" opacity="1"/><line transform="translate(0,60)" x2="-5" y2="0" stroke="#d8c9ad" stroke-width="1" opacity="1"/><line transform="translate(0,30)" x2="-5" y2="0" stroke="#d8c9ad" stroke-width="1" opacity="1"/><line transform="translate(0,0)" x2="-5" y2="0" stroke="#d8c9ad" stroke-width="1" opacity="1"/></g><g class="mark-text role-axis-label" pointer-events="none"><text text-anchor="end" transform="translate(-7,304)" font-family="Noto Sans" font-size="13px" fill="#594a37" opacity="1">0</text><text text-anchor="end" transform="translate(-7,274)" font-family="Noto Sans" font-size="13px" fill="#594a37" opacity="1">10</text><text text-anchor="end" transform="translate(-7,244)" font-family="Noto Sans" font-size="13px" fill="#594a37" opacity="1">20</text><text text-anchor="end" transform="translate(-7,214)" font-family="Noto Sans" font-size="13px" fill="#594a37" opacity="1">30</text><text text-anchor="end" transform="translate(-7,184)" font-family="Noto Sans" font-size="13px" fill="#594a37" opacity="1">40</text><text text-anchor="end" transform="translate(-7,154)" font-family="Noto Sans" font-size="13px" fill="#594a37" opacity="1">50</text><text text-anchor="end" transform="translate(-7,124)" font-family="Noto Sans" font-size="13px" fill="#594a37" opacity="1">60</text><text text-anchor="end" transform="translate(-7,94.00000000000001)" font-family="Noto Sans" font-size="13px" fill="#594a37" opacity="1">70</text><text text-anchor="end" transform="translate(-7,63.999999999999986)" font-family="Noto Sans" font-size="13px" fill="#594a37" opacity="1">80</text><text text-anchor="end" transform="translate(-7,33.99999999999999)" font-family="Noto Sans" font-size="13px" fill="#594a37" opacity="1">90</text><text text-anchor="end" transform="translate(-7,4)" font-family="Noto Sans" font-size="13px" fill="#594a37" opacity="1">100</text></g><g class="mark-rule role-axis-domain" pointer-events="none"><line transform="translate(0,300)" x2="0" y2="-300" stroke="#d8c9ad" stroke-width="1" opacity="1"/></g><g class="mark-text role-axis-title" pointer-events="none"><text text-anchor="middle" transform="translate(-33.30799865722656,150) rotate(-90) translate(0,-3)" font-family="Noto Sans" font-size="14px" font-weight="bold" fill="#000000" opacity="1">Valore</text></g></g><path class="foreground" aria-hidden="true" d="" pointer-events="none" display="none"/></g></g><g class="mark-group role-scope" role="graphics-object" aria-roledescription="group mark container"><g transform="translate(2.5,216)"><path class="background" aria-hidden="true" d="M7,0L38,0C41.863405171458,0,45,3.136594828542,45,7L45,84C45,84,45,84,45,84L0,84C0,84,0,84,0,84L0,7C0,3.136594828542,3.136594828542,0,7,0Z" stroke-width="2.5"/><g clip-path="url(#clip269)"><g class="mark-group role-scope" role="graphics-object" aria-roledescription="group mark container"><g transform="translate(0,-216)"><path class="background" aria-hidden="true" d="M0,0h45v0h-45Z"/><g><g class="mark-rect role-mark concat_1_concat_0_concat_1_layer_0_marks" role="graphics-object" aria-roledescription="rect mark container"><path aria-label="Categoria: A; Valore: 28" role="graphics-symbol" aria-roledescription="bar" d="M0,216h45v84h-45Z" fill="#e0d1b4" stroke-width="2.5"/></g></g><path class="foreground" aria-hidden="true" d="" display="none"/></g></g></g><path class="foreground" aria-hidden="true" d="" display="none"/></g><g transform="translate(52.5,267)"><path class="background" aria-hidden="true" d="M7,0L38,0C41.863405171458,0,45,3.136594828542,45,7L45,33C45,33,45,33,45,33L0,33C0,33,0,33,0,33L0,7C0,3.136594828542,3.136594828542,0,7,0Z" stroke-width="2.5"/><g clip-path="url(#clip270)"><g class="mark-group role-scope" role="graphics-object" aria-roledescription="group mark container"><g transform="translate(0,-267)"><path class="background" aria-hidden="true" d="M0,0h45v0h-45Z"/><g><g class="mark-rect role-mark concat_1_concat_0_concat_1_layer_0_marks" role="graphics-object" aria-roledescription="rect mark container"><path aria-label="Categoria: B; Valore: 11" role="graphics-symbol" aria-roledescription="bar" d="M0,267h45v33h-45Z" fill="#c2a46c" stroke-width="2.5"/></g></g><path class="foreground" aria-hidden="true" d="" display="none"/></g></g></g><path class="foreground" aria-hidden="true" d="" display="none"/></g><g transform="translate(102.5,261)"><path class="background" aria-hidden="true" d="M7,0L38,0C41.863405171458,0,45,3.136594828542,45,7L45,39C45,39,45,39,45,39L0,39C0,39,0,39,0,39L0,7C0,3.136594828542,3.136594828542,0,7,0Z" stroke-width="2.5"/><g clip-path="url(#clip271)"><g class="mark-group role-scope" role="graphics-object" aria-roledescription="group mark container"><g transform="translate(0,-261)"><path class="background" aria-hidden="true" d="M0,0h45v0h-45Z"/><g><g class="mark-rect role-mark concat_1_concat_0_concat_1_layer_0_marks" role="graphics-object" aria-roledescription="rect mark container"><path aria-label="Categoria: C; Valore: 13" role="graphics-symbol" aria-roledescription="bar" d="M0,261h45v39h-45Z" fill="#e0d1b4" stroke-width="2.5"/></g></g><path class="foreground" aria-hidden="true" d="" display="none"/></g></g></g><path class="foreground" aria-hidden="true" d="" display="none"/></g><g transform="translate(152.5,231)"><path class="background" aria-hidden="true" d="M7,0L38,0C41.863405171458,0,45,3.136594828542,45,7L45,69C45,69,45,69,45,69L0,69C0,69,0,69,0,69L0,7C0,3.136594828542,3.136594828542,0,7,0Z" stroke-width="2.5"/><g clip-path="url(#clip272)"><g class="mark-group role-scope" role="graphics-object" aria-roledescription="group mark container"><g transform="translate(0,-231)"><path class="background" aria-hidden="true" d="M0,0h45v0h-45Z"/><g><g class="mark-rect role-mark concat_1_concat_0_concat_1_layer_0_marks" role="graphics-object" aria-roledescription="rect mark container"><path aria-label="Categoria: D; Valore: 23" role="graphics-symbol" aria-roledescription="bar" d="M0,231h45v69h-45Z" fill="#e0d1b4" stroke-width="2.5"/></g></g><path class="foreground" aria-hidden="true" d="" display="none"/></g></g></g><path class="foreground" aria-hidden="true" d="" display="none"/></g><g transform="translate(202.5,42.00000000000001)"><path class="background" aria-hidden="true" d="M7,0L38,0C41.863405171458,0,45,3.136594828542,45,7L45,258C45,258,45,258,45,258L0,258C0,258,0,258,0,258L0,7C0,3.136594828542,3.136594828542,0,7,0Z" stroke-width="2.5"/><g clip-path="url(#clip273)"><g class="mark-group role-scope" role="graphics-object" aria-roledescription="group mark container"><g transform="translate(0,-42.00000000000001)"><path class="background" aria-hidden="true" d="M0,0h45v0h-45Z"/><g><g class="mark-rect role-mark concat_1_concat_0_concat_1_layer_0_marks" role="graphics-object" aria-roledescription="rect mark container"><path aria-label="Categoria: E; Valore: 86" role="graphics-symbol" aria-roledescription="bar" d="M0,42.00000000000001h45v258h-45Z" fill="#e0d1b4" stroke-width="2.5"/></g></g><path class="foreground" aria-hidden="true" d="" display="none"/></g></g></g><path class="foreground" aria-hidden="true" d="" display="none"/></g><g transform="translate(252.5,216)"><path class="background" aria-hidden="true" d="M7,0L38,0C41.863405171458,0,45,3.136594828542,45,7L45,84C45,84,45,84,45,84L0,84C0,84,0,84,0,84L0,7C0,3.136594828542,3.136594828542,0,7,0Z" stroke-width="2.5"/><g clip-path="url(#clip274)"><g class="mark-group role-scope" role="graphics-object" aria-roledescription="group mark container"><g transform="translate(0,-216)"><path class="background" aria-hidden="true" d="M0,0h45v0h-45Z"/><g><g class="mark-rect role-mark concat_1_concat_0_concat_1_layer_0_marks" role="graphics-object" aria-roledescription="rect mark container"><path aria-label="Categoria: F; Valore: 28" role="graphics-symbol" aria-roledescription="bar" d="M0,216h45v84h-45Z" fill="#e0d1b4" stroke-width="2.5"/></g></g><path class="foreground" aria-hidden="true" d="" display="none"/></g></g></g><path class="foreground" aria-hidden="true" d="" display="none"/></g><g transform="translate(302.5,203.99999999999997)"><path class="background" aria-hidden="true" d="M7,0L38,0C41.863405171458,0,45,3.136594828542,45,7L45,96.00000000000003C45,96.00000000000003,45,96.00000000000003,45,96.00000000000003L0,96.00000000000003C0,96.00000000000003,0,96.00000000000003,0,96.00000000000003L0,7C0,3.136594828542,3.136594828542,0,7,0Z" stroke-width="2.5"/><g clip-path="url(#clip275)"><g class="mark-group role-scope" role="graphics-object" aria-roledescription="group mark container"><g transform="translate(0,-203.99999999999997)"><path class="background" aria-hidden="true" d="M0,0h45v0h-45Z"/><g><g class="mark-rect role-mark concat_1_concat_0_concat_1_layer_0_marks" role="graphics-object" aria-roledescription="rect mark container"><path aria-label="Categoria: G; Valore: 32" role="graphics-symbol" aria-roledescription="bar" d="M0,203.99999999999997h45v96.00000000000003h-45Z" fill="#e0d1b4" stroke-width="2.5"/></g></g><path class="foreground" aria-hidden="true" d="" display="none"/></g></g></g><path class="foreground" aria-hidden="true" d="" display="none"/></g><g transform="translate(352.5,93.00000000000001)"><path class="background" aria-hidden="true" d="M7,0L38,0C41.863405171458,0,45,3.136594828542,45,7L45,207C45,207,45,207,45,207L0,207C0,207,0,207,0,207L0,7C0,3.136594828542,3.136594828542,0,7,0Z" stroke-width="2.5"/><g clip-path="url(#clip276)"><g class="mark-group role-scope" role="graphics-object" aria-roledescription="group mark container"><g transform="translate(0,-93.00000000000001)"><path class="background" aria-hidden="true" d="M0,0h45v0h-45Z"/><g><g class="mark-rect role-mark concat_1_concat_0_concat_1_layer_0_marks" role="graphics-object" aria-roledescription="rect mark container"><path aria-label="Categoria: H; Valore: 69" role="graphics-symbol" aria-roledescription="bar" d="M0,93.00000000000001h45v207h-45Z" fill="#e0d1b4" stroke-width="2.5"/></g></g><path class="foreground" aria-hidden="true" d="" display="none"/></g></g></g><path class="foreground" aria-hidden="true" d="" display="none"/></g><g transform="translate(402.5,267)"><path class="background" aria-hidden="true" d="M7,0L38,0C41.863405171458,0,45,3.136594828542,45,7L45,33C45,33,45,33,45,33L0,33C0,33,0,33,0,33L0,7C0,3.136594828542,3.136594828542,0,7,0Z" stroke-width="2.5"/><g clip-path="url(#clip277)"><g class="mark-group role-scope" role="graphics-object" aria-roledescription="group mark container"><g transform="translate(0,-267)"><path class="background" aria-hidden="true" d="M0,0h45v0h-45Z"/><g><g class="mark-rect role-mark concat_1_concat_0_concat_1_layer_0_marks" role="graphics-object" aria-roledescription="rect mark container"><path aria-label="Categoria: I; Valore: 11" role="graphics-symbol" aria-roledescription="bar" d="M0,267h45v33h-45Z" fill="#e0d1b4" stroke-width="2.5"/></g></g><path class="foreground" aria-hidden="true" d="" display="none"/></g></g></g><path class="foreground" aria-hidden="true" d="" display="none"/></g><g transform="translate(452.5,26.99999999999999)"><path class="background" aria-hidden="true" d="M7,0L38,0C41.863405171458,0,45,3.136594828542,45,7L45,273C45,273,45,273,45,273L0,273C0,273,0,273,0,273L0,7C0,3.136594828542,3.136594828542,0,7,0Z" stroke-width="2.5"/><g clip-path="url(#clip278)"><g class="mark-group role-scope" role="graphics-object" aria-roledescription="group mark container"><g transform="translate(0,-26.99999999999999)"><path class="background" aria-hidden="true" d="M0,0h45v0h-45Z"/><g><g class="mark-rect role-mark concat_1_concat_0_concat_1_layer_0_marks" role="graphics-object" aria-roledescription="rect mark container"><path aria-label="Categoria: J; Valore: 91" role="graphics-symbol" aria-roledescription="bar" d="M0,26.99999999999999h45v273h-45Z" fill="#e0d1b4" stroke-width="2.5"/></g></g><path class="foreground" aria-hidden="true" d="" display="none"/></g></g></g><path class="foreground" aria-hidden="true" d="" display="none"/></g></g><g class="mark-text role-mark concat_1_concat_0_concat_1_layer_1_marks" role="graphics-object" aria-roledescription="text mark container"><text aria-label="Categoria: A; Valore: 28; valori: 28" role="graphics-symbol" aria-roledescription="text mark" text-anchor="middle" transform="translate(25,242)" font-family="sans-serif" font-size="20px" font-weight="bold" fill="#000000" stroke-width="2.5">28</text><text aria-label="Categoria: B; Valore: 11; valori: 11" role="graphics-symbol" aria-roledescription="text mark" text-anchor="middle" transform="translate(75,293)" font-family="sans-serif" font-size="20px" font-weight="bold" fill="#000000" stroke-width="2.5">11</text><text aria-label="Categoria: C; Valore: 13; valori: 13" role="graphics-symbol" aria-roledescription="text mark" text-anchor="middle" transform="translate(125,287)" font-family="sans-serif" font-size="20px" font-weight="bold" fill="#000000" stroke-width="2.5">13</text><text aria-label="Categoria: D; Valore: 23; valori: 23" role="graphics-symbol" aria-roledescription="text mark" text-anchor="middle" transform="translate(175,257)" font-family="sans-serif" font-size="20px" font-weight="bold" fill="#000000" stroke-width="2.5">23</text><text aria-label="Categoria: E; Valore: 86; valori: 86" role="graphics-symbol" aria-roledescription="text mark" text-anchor="middle" transform="translate(225,68)" font-family="sans-serif" font-size="20px" font-weight="bold" fill="#000000" stroke-width="2.5">86</text><text aria-label="Categoria: F; Valore: 28; valori: 28" role="graphics-symbol" aria-roledescription="text mark" text-anchor="middle" transform="translate(275,242)" font-family="sans-serif" font-size="20px" font-weight="bold" fill="#000000" stroke-width="2.5">28</text><text aria-label="Categoria: G; Valore: 32; valori: 32" role="graphics-symbol" aria-roledescription="text mark" text-anchor="middle" transform="translate(325,229.99999999999997)" font-family="sans-serif" font-size="20px" font-weight="bold" fill="#000000" stroke-width="2.5">32</text><text aria-label="Categoria: H; Valore: 69; valori: 69" role="graphics-symbol" aria-roledescription="text mark" text-anchor="middle" transform="translate(375,119.00000000000001)" font-family="sans-serif" font-size="20px" font-weight="bold" fill="#000000" stroke-width="2.5">69</text><text aria-label="Categoria: I; Valore: 11; valori: 11" role="graphics-symbol" aria-roledescription="text mark" text-anchor="middle" transform="translate(425,293)" font-family="sans-serif" font-size="20px" font-weight="bold" fill="#000000" stroke-width="2.5">11</text><text aria-label="Categoria: J; Valore: 91; valori: 91" role="graphics-symbol" aria-roledescription="text mark" text-anchor="middle" transform="translate(475,52.999999999999986)" font-family="sans-serif" font-size="20px" font-weight="bold" fill="#000000" stroke-width="2.5">91</text></g><g class="mark-text role-mark concat_1_concat_0_concat_1_layer_2_marks" role="graphics-object" aria-roledescription="text mark container"><text text-anchor="end" transform="translate(490,369)" font-family="Noto Sans" font-size="11px" fill="#000000" stroke-width="2.5">Fonte: dati di esempio</text></g><g class="mark-rule role-mark concat_1_concat_0_concat_1_layer_3_layer_0_marks" role="graphics-object" aria-roledescription="rule mark container"><line aria-label="y: 39.2" role="graphics-symbol" aria-roledescription="rule mark" transform="translate(500,182.4)" x2="-500" y2="0" stroke="green" stroke-width="2" stroke-dasharray="6,4"/></g><g class="mark-text role-mark concat_1_concat_0_concat_1_layer_3_layer_1_marks" role="graphics-object" aria-roledescription="text mark container"><text aria-label="y: 39.2" role="graphics-symbol" aria-roledescription="text mark" text-anchor="start" transform="translate(510,187.4)" font-family="sans-serif" font-size="16px" font-style="normal" font-weight="bold" fill="green" stroke-width="2.5">Media 39,2</text></g><g class="mark-rule role-mark concat_1_concat_0_concat_1_layer_4_layer_0_marks" role="graphics-object" aria-roledescription="rule mark container"><line aria-label="y: 28" role="graphics-symbol" aria-roledescription="rule mark" transform="translate(500,216)" x2="-500" y2="0" stroke="darkblue" stroke-width="2" stroke-dasharray="6,4"/></g><g class="mark-text role-mark concat_1_concat_0_concat_1_layer_4_layer_1_marks" role="graphics-object" aria-roledescription="text mark container"><text aria-label="y: 28" role="graphics-symbol" aria-roledescription="text mark" text-anchor="start" transform="translate(510,221)" font-family="sans-serif" font-size="16px" font-style="normal" font-weight="bold" fill="darkblue" stroke-width="2.5">Mediana 28</text></g></g><path class="foreground" aria-hidden="true" d="" display="none"/></g></g></g><path class="foreground" aria-hidden="true" d="" display="none"/></g></g><g class="mark-group role-scope concat_1_concat_1_group" role="graphics-object" aria-roledescription="group mark container"><g transform="translate(83,420)"><path class="background" aria-hidden="true" d="M0,0h0v0h0Z"/><g><g class="mark-group role-scope concat_1_concat_1_concat_0_group" role="graphics-object" aria-roledescription="group mark container"><g transform="translate(0,0)"><path class="background" aria-hidden="true" d="M0,0h750v134h-750Z" stroke="#ddd" stroke-width="0"/><g><g class="mark-rect role-mark concat_1_concat_1_concat_0_layer_0_marks" role="graphics-object" aria-roledescription="rect mark container"><path aria-label="x: 0; y: 0; x2: 240; y2: 124" role="graphics-symbol" aria-roledescription="rect mark" d="M8,6.184615384615378L352,6.184615384615378C356.415320195952,6.184615384615378,360,9.769295188663378,360,14.184615384615377L360,126C360,130.415320195952,356.415320195952,134,352,134L8,134C3.584679804048,134,0,130.415320195952,0,126L0,14.184615384615377C0,9.769295188663378,3.584679804048,6.184615384615378,8,6.184615384615378Z" fill="#e0d1b4" stroke="#c2a46c" stroke-width="1" opacity="1"/><path aria-label="x: 250; y: 0; x2: 490; y2: 124" role="graphics-symbol" aria-roledescription="rect mark" d="M383,6.184615384615378L727,6.184615384615378C731.415320195952,6.184615384615378,735,9.769295188663378,735,14.184615384615377L735,126C735,130.415320195952,731.415320195952,134,727,134L383,134C378.584679804048,134,375,130.415320195952,375,126L375,14.184615384615377C375,9.769295188663378,378.584679804048,6.184615384615378,383,6.184615384615378Z" fill="#e0d1b4" stroke="#c2a46c" stroke-width="1" opacity="1"/></g><g class="mark-text role-mark concat_1_concat_1_concat_0_layer_1_marks" clip-path="url(#clip279)" role="graphics-object" aria-roledescription="text mark container"><text aria-label="x_mid: 120; y_text: 118; text: Lorem ipsum dolor sit amet,&#xA;consectetuer adipiscing&#xA;elit, sed diam nonummy nibh&#xA;euismod tincidunt." role="graphics-symbol" aria-roledescription="text mark" text-anchor="middle" transform="translate(180,23.369230769230768)" font-family="Noto Sans" font-size="14px" fill="#000000" stroke-width="2.5"><tspan>Lorem ipsum dolor sit amet,</tspan><tspan x="0" dy="16">consectetuer adipiscing</tspan><tspan x="0" dy="16">elit, sed diam nonummy nibh</tspan><tspan x="0" dy="16">euismod tincidunt.</tspan></text><text aria-label="x_mid: 370; y_text: 118; text: ut laoreet dolore magna&#xA;aliquam erat volutpat. Ut&#xA;wisi enim ad minim veniam,&#xA;quis nostrud exerci tation&#xA;ullamcorper suscipit&#xA;lobortis nisl ut aliquip ex&#xA;ea commodo consequat." role="graphics-symbol" aria-roledescription="text mark" text-anchor="middle" transform="translate(555,23.369230769230768)" font-family="Noto Sans" font-size="14px" fill="#000000" stroke-width="2.5"><tspan>ut laoreet dolore magna</tspan><tspan x="0" dy="16">aliquam erat volutpat. Ut</tspan><tspan x="0" dy="16">wisi enim ad minim veniam,</tspan><tspan x="0" dy="16">quis nostrud exerci tation</tspan><tspan x="0" dy="16">ullamcorper suscipit</tspan><tspan x="0" dy="16">lobortis nisl ut aliquip ex</tspan><tspan x="0" dy="16">ea commodo consequat.</tspan></text></g><g class="mark-group role-title"><g transform="translate(375,-29)"><path class="background" aria-hidden="true" d="M0,0h0v0h0Z" pointer-events="none"/><g><g class="mark-text role-title-text" role="graphics-symbol" aria-roledescription="title" aria-label="Title text 'Next Steps'" pointer-events="none"><text text-anchor="middle" transform="translate(0,15)" font-family="Noto Sans" font-size="19px" font-weight="bold" fill="#000000" opacity="1">Next Steps</text></g></g><path class="foreground" aria-hidden="true" d="" pointer-events="none" display="none"/></g></g></g><path class="foreground" aria-hidden="true" d="" display="none"/></g></g></g><path class="foreground" aria-hidden="true" d="" display="none"/></g></g></g><path class="foreground" aria-hidden="true" d="" display="none"/></g></g></g><path class="foreground" aria-hidden="true" d="" display="none"/></g></g></g><defs><clipPath id="clip269"><path d="M7,0L38,0C41.863405171458,0,45,3.136594828542,45,7L45,84C45,84,45,84,45,84L0,84C0,84,0,84,0,84L0,7C0,3.136594828542,3.136594828542,0,7,0Z"/></clipPath><clipPath id="clip270"><path d="M7,0L38,0C41.863405171458,0,45,3.136594828542,45,7L45,33C45,33,45,33,45,33L0,33C0,33,0,33,0,33L0,7C0,3.136594828542,3.136594828542,0,7,0Z"/></clipPath><clipPath id="clip271"><path d="M7,0L38,0C41.863405171458,0,45,3.136594828542,45,7L45,39C45,39,45,39,45,39L0,39C0,39,0,39,0,39L0,7C0,3.136594828542,3.136594828542,0,7,0Z"/></clipPath><clipPath id="clip272"><path d="M7,0L38,0C41.863405171458,0,45,3.136594828542,45,7L45,69C45,69,45,69,45,69L0,69C0,69,0,69,0,69L0,7C0,3.136594828542,3.136594828542,0,7,0Z"/></clipPath><clipPath id="clip273"><path d="M7,0L38,0C41.863405171458,0,45,3.136594828542,45,7L45,258C45,258,45,258,45,258L0,258C0,258,0,258,0,258L0,7C0,3.136594828542,3.136594828542,0,7,0Z"/></clipPath><clipPath id="clip274"><path d="M7,0L38,0C41.863405171458,0,45,3.136594828542,45,7L45,84C45,84,45,84,45,84L0,84C0,84,0,84,0,84L0,7C0,3.136594828542,3.136594828542,0,7,0Z"/></clipPath><clipPath id="clip275"><path d="M7,0L38,0C41.863405171458,0,45,3.136594828542,45,7L45,96.00000000000003C45,96.00000000000003,45,96.00000000000003,45,96.00000000000003L0,96.00000000000003C0,96.00000000000003,0,96.00000000000003,0,96.00000000000003L0,7C0,3.136594828542,3.136594828542,0,7,0Z"/></clipPath><clipPath id="clip276"><path d="M7,0L38,0C41.863405171458,0,45,3.136594828542,45,7L45,207C45,207,45,207,45,207L0,207C0,207,0,207,0,207L0,7C0,3.136594828542,3.136594828542,0,7,0Z"/></clipPath><clipPath id="clip277"><path d="M7,0L38,0C41.863405171458,0,45,3.136594828542,45,7L45,33C45,33,45,33,45,33L0,33C0,33,0,33,0,33L0,7C0,3.136594828542,3.136594828542,0,7,0Z"/></clipPath><clipPath id="clip278"><path d="M7,0L38,0C41.863405171458,0,45,3.136594828542,45,7L45,273C45,273,45,273,45,273L0,273C0,273,0,273,0,273L0,7C0,3.136594828542,3.136594828542,0,7,0Z"/></clipPath><clipPath id="clip279"><rect x="0" y="0" width="750" height="134"/></clipPath></defs></svg>